<svg width="100" height="100" viewBox="0 0 100 100" fill="none" xmlns="http://www.w3.org/2000/svg">
<path d="M55.8427 88.1256C55.5811 88.2977 55.6013 88.3415 55.9032 88.2569C57.2276 87.8872 58.3942 87.3735 59.403 86.7157C65.5931 82.6833 66.9913 74.5656 66.0385 67.818C65.1285 61.3728 62.223 55.5839 58.0108 50.5427C56.7851 49.0752 55.5551 47.6977 54.238 46.3497C52.6717 44.746 51.071 43.0548 49.4358 41.2761C48.1832 39.9143 47.0313 38.4379 45.9802 36.847C43.6882 33.3766 42.3874 29.2381 42.2591 25.1881C42.1598 22.024 42.6248 18.9867 43.6543 16.0763C44.9256 12.4864 46.9374 9.26821 49.4919 6.37007C49.7485 6.07902 49.9884 5.78356 50.2116 5.48366C50.304 5.35879 50.3581 5.37354 50.3738 5.52791C50.3817 5.61542 50.3738 5.699 50.3502 5.77864C49.8665 7.42018 49.8724 8.98651 49.9476 10.6413C50.1688 15.5438 52.9047 20.0039 56.5256 23.2353C59.3175 25.7279 62.3912 27.7927 65.4102 30.0095C67.5223 31.5591 69.5035 33.2522 71.354 35.0889C76.6832 40.3749 80.1369 46.6294 81.715 53.8524C81.9146 54.7658 82.0734 55.7304 82.1914 56.7461C82.3949 58.4943 82.4967 60.0375 82.4967 61.3757C82.4967 62.4042 82.4053 63.737 82.2224 65.3741C81.7327 69.7526 80.4506 73.8331 78.3759 77.6157C75.3976 83.0452 71.239 87.2923 65.8999 90.3571C65.0454 90.8478 64.0543 91.3473 62.9265 91.8556C61.9521 92.2942 61.0117 92.6594 60.1051 92.9515C54.8437 94.6436 49.4304 95.033 43.8652 94.1196C42.9498 93.9691 41.999 93.7528 41.0128 93.4706C34.1133 91.4987 27.9188 87.1036 23.8334 81.2571C20.7435 76.8369 18.6448 71.8061 17.866 66.4774C16.7687 58.982 17.7141 51.4468 19.543 43.9972C19.6919 43.3881 20.0017 42.4442 20.1742 41.633C20.1959 41.5307 20.2322 41.4545 20.2834 41.4044C20.2951 41.393 20.3099 41.3854 20.326 41.3824C20.342 41.3795 20.3586 41.3813 20.3736 41.3878C20.3886 41.3943 20.4014 41.4051 20.4102 41.4188C20.4191 41.4325 20.4237 41.4485 20.4235 41.4649C20.3866 45.9057 21.0252 50.3761 22.7095 54.404C24.2036 57.9732 26.4838 61.2666 29.4674 63.7577C30.7427 64.8225 32.0465 65.7743 33.3788 66.613C35.2386 67.7841 37.1648 68.9212 38.9465 70.2663C41.4764 72.1758 43.3628 74.5956 44.6056 77.5257C45.1366 78.7764 45.4964 80.2763 45.5038 81.6067C45.5058 82.0265 45.6002 82.0482 45.787 81.6716C46.3632 80.5094 46.6591 79.1869 46.6748 77.7042C46.7112 74.309 45.6842 71.2152 43.5938 68.4227C42.8367 67.4119 41.8761 66.3132 40.7119 65.1264C39.5182 63.9111 38.2518 62.6451 36.9126 61.3285C34.3198 58.7785 32.0042 55.7122 30.5146 52.671C28.9217 49.4189 27.9188 46.0163 27.8023 42.2952C27.6887 38.7304 28.2049 35.1111 29.4261 31.7542C30.7063 28.2362 32.5298 25.0691 34.8965 22.2531C34.9052 22.2429 34.9165 22.2353 34.9293 22.2312C34.9421 22.2272 34.9557 22.2267 34.9687 22.2299C34.9817 22.2331 34.9936 22.2399 35.0029 22.2494C35.0123 22.259 35.0189 22.271 35.0218 22.284C35.0484 22.3991 35.0503 22.5087 35.0277 22.6129C34.8517 23.4271 34.7578 24.1748 34.746 24.8562C34.7195 26.2588 34.6944 27.7249 34.805 29.0847C35.0086 31.6107 35.6147 34.0457 36.6235 36.3898C38.2208 40.0976 40.5733 43.4353 43.4345 46.2685C45.6513 48.4632 47.8105 50.208 50.8281 52.5294C51.5321 53.0722 52.3807 53.7865 53.3737 54.6724C57.6607 58.5022 60.3893 63.2292 61.5593 68.8534C61.7609 69.8199 61.8956 70.7825 61.9634 71.7412C62.3307 76.9195 61.3086 82.3854 57.8544 86.4458C57.2778 87.1227 56.5816 87.6419 55.8427 88.1256Z" fill="url(#paint0_linear_2762_6)"/>
<defs>
<linearGradient id="paint0_linear_2762_6" x1="11.8676" y1="82.3149" x2="100.508" y2="22.1399" gradientUnits="userSpaceOnUse">
<stop offset="0.0937427" stop-color="#AB1379"/>
<stop offset="0.239159" stop-color="#F94538"/>
<stop offset="0.405169" stop-color="#FC792B"/>
<stop offset="0.507028" stop-color="#FC852D"/>
<stop offset="0.609718" stop-color="#FFB42E"/>
<stop offset="0.731013" stop-color="#FECB4D"/>
</linearGradient>
</defs>
</svg>
