<svg width="3446" height="1188" viewBox="0 0 3446 1188" fill="none" xmlns="http://www.w3.org/2000/svg">
<rect width="3446" height="1188" fill="white"/>
<path d="M1077.5 809V498H963.5V439H1259.5V498H1145.5V809H1077.5ZM1354.09 814C1325.09 814 1300.42 807.5 1280.09 794.5C1259.75 781.5 1244.25 764.667 1233.59 744C1223.25 723 1218.09 700.5 1218.09 676.5C1218.09 652.5 1223.25 630.167 1233.59 609.5C1244.25 588.5 1259.75 571.5 1280.09 558.5C1300.42 545.5 1325.09 539 1354.09 539C1383.42 539 1408.09 545.5 1428.09 558.5C1448.42 571.5 1463.75 588.5 1474.09 609.5C1484.75 630.167 1490.09 652.5 1490.09 676.5C1490.09 700.5 1484.75 723 1474.09 744C1463.75 764.667 1448.42 781.5 1428.09 794.5C1408.09 807.5 1383.42 814 1354.09 814ZM1354.09 758.5C1369.09 758.5 1381.59 754.667 1391.59 747C1401.92 739.333 1409.75 729.333 1415.09 717C1420.42 704.333 1423.09 690.833 1423.09 676.5C1423.09 661.833 1420.42 648.333 1415.09 636C1409.75 623.667 1401.92 613.667 1391.59 606C1381.59 598.333 1369.09 594.5 1354.09 594.5C1339.42 594.5 1326.92 598.333 1316.59 606C1306.25 613.667 1298.42 623.667 1293.09 636C1287.75 648.333 1285.09 661.833 1285.09 676.5C1285.09 690.833 1287.75 704.333 1293.09 717C1298.42 729.333 1306.25 739.333 1316.59 747C1326.92 754.667 1339.42 758.5 1354.09 758.5ZM1508.26 809V544H1574.26V580.5H1576.76C1581.42 570.167 1589.09 560.667 1599.76 552C1610.42 543.333 1626.42 539 1647.76 539C1654.42 539 1659.92 539.5 1664.26 540.5C1668.59 541.167 1670.76 541.5 1670.76 541.5V606C1670.76 606 1668.26 605.667 1663.26 605C1658.59 604.333 1652.76 604 1645.76 604C1622.42 604 1604.76 610.5 1592.76 623.5C1580.76 636.5 1574.76 657.5 1574.76 686.5V809H1508.26ZM1793.61 814C1770.94 814 1751.11 810.167 1734.11 802.5C1717.11 794.5 1702.94 784 1691.61 771C1680.27 757.667 1671.77 742.833 1666.11 726.5C1660.77 710.167 1658.11 693.5 1658.11 676.5C1658.11 659.5 1660.77 642.833 1666.11 626.5C1671.77 610.167 1680.11 595.5 1691.11 582.5C1702.44 569.167 1716.61 558.667 1733.61 551C1750.61 543 1770.61 539 1793.61 539C1816.27 539 1835.11 542.333 1850.11 549C1865.11 555.667 1876.94 564 1885.61 574C1894.61 584 1901.27 594 1905.61 604C1909.94 613.667 1912.77 621.833 1914.11 628.5C1915.44 635.167 1916.11 638.5 1916.11 638.5H1853.61C1853.61 638.5 1852.94 636.333 1851.61 632C1850.27 627.333 1847.61 622 1843.61 616C1839.61 610 1833.61 604.667 1825.61 600C1817.94 595.333 1807.61 593 1794.61 593C1779.27 593 1766.27 597 1755.61 605C1745.27 612.667 1737.44 622.833 1732.11 635.5C1726.77 648.167 1724.11 661.833 1724.11 676.5C1724.11 691.167 1726.77 704.833 1732.11 717.5C1737.44 730.167 1745.27 740.5 1755.61 748.5C1766.27 756.167 1779.27 760 1794.61 760C1807.61 760 1817.94 757.667 1825.61 753C1833.61 748.333 1839.61 743 1843.61 737C1847.61 731 1850.27 725.833 1851.61 721.5C1852.94 716.833 1853.61 714.5 1853.61 714.5H1916.11C1916.11 714.5 1915.44 717.833 1914.11 724.5C1912.77 731.167 1909.94 739.5 1905.61 749.5C1901.27 759.167 1894.61 769 1885.61 779C1876.94 789 1865.11 797.333 1850.11 804C1835.11 810.667 1816.27 814 1793.61 814ZM1939.12 809V429H2005.62V582H2008.62C2011.28 577.333 2015.45 571.667 2021.12 565C2026.78 558 2034.62 552 2044.62 547C2054.62 541.667 2067.28 539 2082.62 539C2102.95 539 2119.62 543.667 2132.62 553C2145.95 562 2155.78 574 2162.12 589C2168.78 604 2172.12 620.167 2172.12 637.5V809H2105.62V646.5C2105.62 632.167 2101.62 619.833 2093.62 609.5C2085.62 599.167 2073.62 594 2057.62 594C2045.28 594 2035.28 597.167 2027.62 603.5C2019.95 609.5 2014.28 617.333 2010.62 627C2007.28 636.667 2005.62 646.833 2005.62 657.5V809H1939.12ZM2198.92 809V439H2266.92V599.5L2407.92 439.5H2492.92L2332.42 617L2499.42 809H2411.42L2266.92 640V809H2198.92ZM2545.48 503C2533.82 503 2524.15 499.167 2516.48 491.5C2509.15 483.833 2505.48 474.667 2505.48 464C2505.48 453.333 2509.15 444.167 2516.48 436.5C2524.15 428.833 2533.82 425 2545.48 425C2557.15 425 2566.82 428.833 2574.48 436.5C2582.15 444.167 2585.98 453.333 2585.98 464C2585.98 474.667 2582.15 483.833 2574.48 491.5C2566.82 499.167 2557.15 503 2545.48 503ZM2512.48 809V544H2578.98V809H2512.48ZM2727.56 814C2709.56 814 2694.73 811.333 2683.06 806C2671.4 800.667 2662.23 793.667 2655.56 785C2649.23 776.333 2644.73 766.833 2642.06 756.5C2639.4 746.167 2638.06 736 2638.06 726V597.5H2592.56V544H2638.06V478H2704.56V544H2764.06V597.5H2704.56V724.5C2704.56 748.167 2717.9 760 2744.56 760C2750.9 760 2756.73 759.667 2762.06 759C2767.73 758 2770.56 757.5 2770.56 757.5V809.5C2770.56 809.5 2766.23 810.167 2757.56 811.5C2749.23 813.167 2739.23 814 2727.56 814Z" fill="black"/>
<path d="M650.66 852.898C648.887 854.065 649.024 854.361 651.07 853.788C660.05 851.281 667.96 847.798 674.8 843.338C716.77 815.998 726.25 760.958 719.79 715.208C713.62 671.508 693.92 632.258 665.36 598.078C657.05 588.128 648.71 578.788 639.78 569.648C629.16 558.775 618.307 547.308 607.22 535.248C598.727 526.015 590.917 516.005 583.79 505.218C568.25 481.688 559.43 453.628 558.56 426.168C557.887 404.715 561.04 384.121 568.02 364.388C576.64 340.048 590.28 318.228 607.6 298.578C609.34 296.605 610.967 294.601 612.48 292.568C613.107 291.721 613.474 291.821 613.58 292.868C613.634 293.461 613.58 294.028 613.42 294.568C610.14 305.698 610.18 316.318 610.69 327.538C612.19 360.778 630.74 391.018 655.29 412.928C674.22 429.828 695.06 443.828 715.53 458.858C729.85 469.365 743.284 480.845 755.83 493.298C791.964 529.138 815.38 571.545 826.08 620.518C827.434 626.711 828.51 633.251 829.31 640.138C830.69 651.991 831.38 662.455 831.38 671.528C831.38 678.501 830.76 687.538 829.52 698.638C826.2 728.325 817.507 755.991 803.44 781.638C783.247 818.451 755.05 847.248 718.85 868.028C713.057 871.355 706.337 874.741 698.69 878.188C692.084 881.161 685.707 883.638 679.56 885.618C643.887 897.091 607.184 899.731 569.45 893.538C563.244 892.518 556.797 891.051 550.11 889.138C503.33 875.768 461.33 845.968 433.63 806.328C412.68 776.358 398.45 742.248 393.17 706.118C385.73 655.298 392.14 604.208 404.54 553.698C405.55 549.568 407.65 543.168 408.82 537.668C408.967 536.975 409.214 536.458 409.56 536.118C409.64 536.041 409.74 535.989 409.849 535.969C409.958 535.949 410.071 535.962 410.172 536.006C410.274 536.049 410.36 536.122 410.421 536.215C410.481 536.308 410.512 536.417 410.51 536.528C410.26 566.638 414.59 596.948 426.01 624.258C436.14 648.458 451.6 670.788 471.83 687.678C480.477 694.898 489.317 701.351 498.35 707.038C510.96 714.978 524.02 722.688 536.1 731.808C553.254 744.755 566.044 761.161 574.47 781.028C578.07 789.508 580.51 799.678 580.56 808.698C580.574 811.545 581.214 811.691 582.48 809.138C586.387 801.258 588.394 792.291 588.5 782.238C588.747 759.218 581.784 738.241 567.61 719.308C562.477 712.455 555.964 705.005 548.07 696.958C539.977 688.718 531.39 680.135 522.31 671.208C504.73 653.918 489.03 633.128 478.93 612.508C468.13 590.458 461.33 567.388 460.54 542.158C459.77 517.988 463.27 493.448 471.55 470.688C480.23 446.835 492.594 425.361 508.64 406.268C508.7 406.199 508.777 406.148 508.863 406.12C508.95 406.092 509.042 406.089 509.13 406.111C509.218 406.133 509.299 406.179 509.362 406.243C509.426 406.308 509.47 406.389 509.49 406.478C509.67 407.258 509.684 408.001 509.53 408.708C508.337 414.228 507.7 419.298 507.62 423.918C507.44 433.428 507.27 443.368 508.02 452.588C509.4 469.715 513.51 486.225 520.35 502.118C531.18 527.258 547.13 549.888 566.53 569.098C581.56 583.978 596.2 595.808 616.66 611.548C621.434 615.228 627.187 620.071 633.92 626.078C662.987 652.045 681.487 684.095 689.42 722.228C690.787 728.781 691.7 735.308 692.16 741.808C694.65 776.918 687.72 813.978 664.3 841.508C660.39 846.098 655.67 849.618 650.66 852.898Z" fill="url(#paint0_linear_2790_756)"/>
<defs>
<linearGradient id="paint0_linear_2790_756" x1="352.5" y1="813.5" x2="953.5" y2="405.5" gradientUnits="userSpaceOnUse">
<stop offset="0.0937427" stop-color="#AB1379"/>
<stop offset="0.239159" stop-color="#F94538"/>
<stop offset="0.405169" stop-color="#FC792B"/>
<stop offset="0.507028" stop-color="#FC852D"/>
<stop offset="0.609718" stop-color="#FFB42E"/>
<stop offset="0.731013" stop-color="#FECB4D"/>
</linearGradient>
</defs>
</svg>
