<svg width="442" height="605" viewBox="0 0 442 605" fill="none" xmlns="http://www.w3.org/2000/svg">
<path d="M260.66 560.898C258.887 562.065 259.024 562.361 261.07 561.788C270.05 559.281 277.96 555.798 284.8 551.338C326.77 523.998 336.25 468.958 329.79 423.208C323.62 379.508 303.92 340.258 275.36 306.078C267.05 296.128 258.71 286.788 249.78 277.648C239.16 266.775 228.307 255.308 217.22 243.248C208.727 234.015 200.917 224.005 193.79 213.218C178.25 189.688 169.43 161.628 168.56 134.168C167.887 112.715 171.04 92.1213 178.02 72.3879C186.64 48.0479 200.28 26.2279 217.6 6.57792C219.34 4.60458 220.967 2.60125 222.48 0.567921C223.107 -0.278745 223.474 -0.178742 223.58 0.867924C223.634 1.46126 223.58 2.02792 223.42 2.56792C220.14 13.6979 220.18 24.3179 220.69 35.5379C222.19 68.7779 240.74 99.0179 265.29 120.928C284.22 137.828 305.06 151.828 325.53 166.858C339.85 177.365 353.284 188.845 365.83 201.298C401.964 237.138 425.38 279.545 436.08 328.518C437.434 334.711 438.51 341.251 439.31 348.138C440.69 359.991 441.38 370.455 441.38 379.528C441.38 386.501 440.76 395.538 439.52 406.638C436.2 436.325 427.507 463.991 413.44 489.638C393.247 526.451 365.05 555.248 328.85 576.028C323.057 579.355 316.337 582.741 308.69 586.188C302.084 589.161 295.707 591.638 289.56 593.618C253.887 605.091 217.184 607.731 179.45 601.538C173.244 600.518 166.797 599.051 160.11 597.138C113.33 583.768 71.3304 553.968 43.6304 514.328C22.6804 484.358 8.45044 450.248 3.17044 414.118C-4.26956 363.298 2.14044 312.208 14.5404 261.698C15.5504 257.568 17.6504 251.168 18.8204 245.668C18.9671 244.975 19.2138 244.458 19.5605 244.118C19.6399 244.041 19.7405 243.989 19.8494 243.969C19.9583 243.949 20.0707 243.962 20.1724 244.006C20.2741 244.049 20.3605 244.122 20.4207 244.215C20.4808 244.308 20.5121 244.417 20.5104 244.528C20.2604 274.638 24.5904 304.948 36.0104 332.258C46.1404 356.458 61.6004 378.788 81.8304 395.678C90.4771 402.898 99.3171 409.351 108.35 415.038C120.96 422.978 134.02 430.688 146.1 439.808C163.254 452.755 176.044 469.161 184.47 489.028C188.07 497.508 190.51 507.678 190.56 516.698C190.574 519.545 191.214 519.691 192.48 517.138C196.387 509.258 198.394 500.291 198.5 490.238C198.747 467.218 191.784 446.241 177.61 427.308C172.477 420.455 165.964 413.005 158.07 404.958C149.977 396.718 141.39 388.135 132.31 379.208C114.73 361.918 99.0304 341.128 88.9305 320.508C78.1304 298.458 71.3304 275.388 70.5404 250.158C69.7704 225.988 73.2704 201.448 81.5504 178.688C90.2304 154.835 102.594 133.361 118.64 114.268C118.7 114.199 118.777 114.148 118.863 114.12C118.95 114.092 119.042 114.089 119.13 114.111C119.218 114.133 119.299 114.179 119.362 114.243C119.426 114.308 119.47 114.389 119.49 114.478C119.67 115.258 119.684 116.001 119.53 116.708C118.337 122.228 117.7 127.298 117.62 131.918C117.44 141.428 117.27 151.368 118.02 160.588C119.4 177.715 123.51 194.225 130.35 210.118C141.18 235.258 157.13 257.888 176.53 277.098C191.56 291.978 206.2 303.808 226.66 319.548C231.434 323.228 237.187 328.071 243.92 334.078C272.987 360.045 291.487 392.095 299.42 430.228C300.787 436.781 301.7 443.308 302.16 449.808C304.65 484.918 297.72 521.978 274.3 549.508C270.39 554.098 265.67 557.618 260.66 560.898Z" fill="black"/>
</svg>
