<svg width="200" height="275" viewBox="0 0 200 275" fill="none" xmlns="http://www.w3.org/2000/svg">
<path d="M118.111 254.156C117.308 254.685 117.37 254.819 118.297 254.559C122.366 253.424 125.95 251.845 129.05 249.824C148.067 237.436 152.363 212.496 149.436 191.766C146.64 171.964 137.714 154.179 124.772 138.691C121.007 134.183 117.228 129.95 113.181 125.809C108.369 120.882 103.451 115.686 98.4278 110.221C94.5792 106.038 91.0403 101.502 87.8111 96.6141C80.7695 85.9521 76.773 73.2375 76.3788 60.7947C76.0737 51.0737 77.5025 41.7423 80.6653 32.8007C84.5712 21.7717 90.7518 11.8845 98.5999 2.98061C99.3884 2.08645 100.125 1.17869 100.811 0.257339C101.095 -0.126306 101.261 -0.0809924 101.31 0.393277C101.334 0.662131 101.31 0.918899 101.237 1.16359C99.7509 6.20685 99.769 11.019 100 16.1031C100.68 31.1649 109.085 44.8674 120.209 54.7953C128.787 62.4531 138.23 68.7968 147.506 75.6073C153.994 80.3681 160.081 85.57 165.766 91.2129C182.139 107.453 192.75 126.668 197.598 148.859C198.212 151.666 198.7 154.629 199.062 157.75C199.687 163.121 200 167.862 200 171.973C200 175.133 199.719 179.228 199.157 184.257C197.653 197.709 193.714 210.245 187.34 221.867C178.19 238.548 165.413 251.596 149.01 261.012C146.385 262.519 143.34 264.054 139.875 265.616C136.881 266.963 133.992 268.085 131.207 268.982C115.042 274.181 98.4111 275.378 81.3133 272.571C78.5009 272.109 75.5797 271.444 72.5499 270.577C51.3527 264.519 32.3215 251.016 19.77 233.054C10.277 219.474 3.8291 204.018 1.4366 187.647C-1.93464 164.619 0.969884 141.469 6.58862 118.582C7.04627 116.71 7.99783 113.81 8.52799 111.318C8.59445 111.004 8.70623 110.77 8.86331 110.616C8.89932 110.581 8.94488 110.557 8.99424 110.548C9.04359 110.539 9.09452 110.545 9.14059 110.565C9.18667 110.585 9.22582 110.618 9.25309 110.66C9.28035 110.702 9.2945 110.751 9.29377 110.801C9.18049 124.445 11.1425 138.179 16.3172 150.554C20.9073 161.52 27.9126 171.638 37.0793 179.291C40.9973 182.563 45.0029 185.487 49.0962 188.064C54.8101 191.661 60.7278 195.155 66.2016 199.287C73.9742 205.154 79.7696 212.588 83.588 221.59C85.2192 225.433 86.3248 230.041 86.3475 234.128C86.3535 235.418 86.6435 235.484 87.2175 234.327C88.9877 230.757 89.8969 226.694 89.9453 222.138C90.0571 211.708 86.9018 202.203 80.4795 193.623C78.1535 190.518 75.2021 187.142 71.6255 183.496C67.9582 179.762 64.0674 175.873 59.953 171.828C51.9871 163.994 44.8731 154.573 40.2965 145.23C35.4028 135.238 32.3215 124.785 31.9636 113.353C31.6146 102.401 33.2006 91.2808 36.9524 80.9678C40.8856 70.1592 46.4877 60.4292 53.7588 51.7775C53.7856 51.7463 53.8205 51.7231 53.8597 51.7105C53.8989 51.6979 53.9408 51.6965 53.9807 51.7064C54.0207 51.7162 54.0571 51.737 54.0859 51.7664C54.1147 51.7957 54.1348 51.8326 54.144 51.8727C54.2255 52.2261 54.2316 52.5629 54.1621 52.8831C53.6214 55.3844 53.3329 57.6817 53.2966 59.7752C53.2151 64.0844 53.138 68.5884 53.4779 72.7662C54.1032 80.5267 55.9655 88.0078 59.0649 95.2094C63.9722 106.601 71.1996 116.855 79.9902 125.56C86.8006 132.302 93.4343 137.663 102.705 144.795C104.868 146.462 107.475 148.657 110.526 151.379C123.697 163.145 132.08 177.667 135.675 194.947C136.294 197.916 136.708 200.873 136.916 203.819C138.044 219.728 134.904 236.521 124.292 248.995C122.52 251.075 120.382 252.67 118.111 254.156Z" fill="url(#paint0_linear_2746_699)"/>
<defs>
<linearGradient id="paint0_linear_2746_699" x1="-16.9921" y1="236.304" x2="255.335" y2="51.4296" gradientUnits="userSpaceOnUse">
<stop offset="0.0937427" stop-color="#AB1379"/>
<stop offset="0.239159" stop-color="#F94538"/>
<stop offset="0.405169" stop-color="#FC792B"/>
<stop offset="0.507028" stop-color="#FC852D"/>
<stop offset="0.609718" stop-color="#FFB42E"/>
<stop offset="0.731013" stop-color="#FECB4D"/>
</linearGradient>
</defs>
</svg>
